<svg xmlns="http://www.w3.org/2000/svg" viewBox="0 0 64 64" role="img" aria-labelledby="title desc">
  <title id="title">ThumbGate</title>
  <desc id="desc">ThumbGate premium shield and thumbs-up mark.</desc>
  <defs>
    <linearGradient id="tg-frame" x1="8" y1="8" x2="56" y2="56" gradientUnits="userSpaceOnUse">
      <stop offset="0" stop-color="#8cf5d1"/>
      <stop offset="1" stop-color="#22d3ee"/>
    </linearGradient>
  </defs>
  <rect width="64" height="64" rx="14" fill="#061015"/>
  <!-- Outer Shield / Gate -->
  <path d="M32 9 C20 13 15 20 15 33 C15 45 26 53 32 56 C38 53 49 45 49 33 C49 20 44 13 32 9 Z" 
        fill="#0b1820" stroke="url(#tg-frame)" stroke-width="3.5" stroke-linejoin="round"/>
        
  <!-- Proportional Thumbs Up -->
  <g transform="translate(19, 17) scale(1.1)" stroke="#8cf5d1" stroke-width="2.5" stroke-linecap="round" stroke-linejoin="round" fill="none">
    <path d="M14 9V5a3 3 0 0 0-3-3l-4 9v11h11.28a2 2 0 0 0 2-1.7l1.38-9a2 2 0 0 0-2-2.3zM7 22H4a2 2 0 0 1-2-2v-7a2 2 0 0 1 2-2h3"/>
  </g>
</svg>
